<svg xmlns="http://www.w3.org/2000/svg" viewBox="0 0 64 64" role="img" aria-label="WildIdea">
  <defs>
    <clipPath id="badge">
      <rect x="6" y="6" width="48" height="48" rx="5"/>
    </clipPath>
  </defs>

  <rect x="10" y="10" width="48" height="48" rx="5" fill="#2a2a2a"/>
  <rect x="6" y="6" width="48" height="48" rx="5" fill="#496fae" stroke="#2a2a2a" stroke-width="4"/>

  <g clip-path="url(#badge)">
    <rect x="6" y="6" width="48" height="48" fill="#496fae"/>
    <rect x="12" y="14" width="34" height="3" fill="#fff8d8" opacity=".2"/>
    <rect x="7" y="25" width="38" height="2" fill="#e8505b" opacity=".38"/>
    <rect x="9" y="33" width="34" height="2" fill="#55e6ff" opacity=".42"/>
    <rect x="18" y="45" width="36" height="2" fill="#e8505b" opacity=".34"/>
    <rect x="6" y="51" width="34" height="2" fill="#55e6ff" opacity=".36"/>

    <g transform="rotate(8 15 39)">
      <rect x="8" y="34" width="14" height="10" rx="1" fill="#fff8d8" stroke="#2a2a2a" stroke-width="1.5"/>
      <rect x="11" y="37" width="7" height="2" fill="#e8505b" opacity=".72"/>
    </g>
    <g transform="rotate(-8 44 43)">
      <rect x="38" y="38" width="14" height="10" rx="1" fill="#fff8d8" stroke="#2a2a2a" stroke-width="1.5"/>
      <rect x="41" y="41" width="7" height="2" fill="#55e6ff" opacity=".82"/>
    </g>
    <rect x="44" y="18" width="12" height="4" fill="#55e6ff"/>
    <rect x="48" y="47" width="8" height="3" fill="#e8505b" opacity=".68"/>
    <rect x="53" y="52" width="4" height="4" fill="#55e6ff" opacity=".78"/>
    <rect x="43" y="54" width="4" height="4" fill="#e8505b" opacity=".78"/>

    <text x="30" y="43" text-anchor="middle" font-family="Arial, Helvetica, sans-serif" font-size="34" font-weight="800" fill="#fff8d8" stroke="#2a2a2a" stroke-width="6.6" paint-order="stroke">W</text>
  </g>

  <rect x="6" y="6" width="48" height="48" rx="5" fill="none" stroke="#2a2a2a" stroke-width="4"/>
</svg>
