<svg xmlns="http://www.w3.org/2000/svg" viewBox="0 0 64 64" role="img" aria-label="WildIdea">
  <defs>
    <clipPath id="badge">
      <rect x="6" y="6" width="48" height="48" rx="5"/>
    </clipPath>
  </defs>

  <rect x="10" y="10" width="48" height="48" rx="5" fill="#2a2a2a"/>
  <rect x="6" y="6" width="48" height="48" rx="5" fill="#496fae" stroke="#2a2a2a" stroke-width="4"/>

  <g clip-path="url(#badge)">
    <rect x="6" y="6" width="48" height="48" fill="#496fae"/>
    <rect x="12" y="14" width="34" height="3" fill="#fff8d8" opacity=".2"/>
    <rect x="6" y="24" width="39" height="2" fill="#e8505b" opacity=".62"/>
    <rect x="7" y="31" width="36" height="2" fill="#55e6ff" opacity=".66"/>
    <rect x="18" y="43" width="38" height="2" fill="#e8505b" opacity=".58"/>
    <rect x="6" y="50" width="34" height="2" fill="#55e6ff" opacity=".58"/>

    <text x="33" y="45" text-anchor="middle" font-family="Arial Black, Arial, Helvetica, sans-serif" font-size="36" font-weight="900" fill="#e8505b" opacity=".9">W</text>
    <text x="28" y="42" text-anchor="middle" font-family="Arial Black, Arial, Helvetica, sans-serif" font-size="36" font-weight="900" fill="#55e6ff" opacity=".9">W</text>
    <text x="30" y="44" text-anchor="middle" font-family="Arial Black, Arial, Helvetica, sans-serif" font-size="36" font-weight="900" fill="#fff8d8">W</text>

    <g transform="rotate(7 16 38)">
      <rect x="8" y="34" width="14" height="10" rx="1" fill="#fff8d8" stroke="#2a2a2a" stroke-width="3"/>
      <rect x="11" y="37" width="7" height="2" fill="#e8505b" opacity=".75"/>
    </g>
    <g transform="rotate(-8 44 43)">
      <rect x="38" y="38" width="14" height="10" rx="1" fill="#fff8d8" stroke="#2a2a2a" stroke-width="3"/>
      <rect x="41" y="41" width="7" height="2" fill="#55e6ff" opacity=".82"/>
    </g>
    <rect x="44" y="18" width="12" height="4" fill="#55e6ff"/>
    <rect x="47" y="47" width="8" height="3" fill="#e8505b" opacity=".75"/>
    <rect x="53" y="52" width="4" height="4" fill="#55e6ff" opacity=".85"/>
    <rect x="42" y="54" width="4" height="4" fill="#e8505b" opacity=".85"/>
    <rect x="5" y="27" width="14" height="4" fill="#2a2a2a" opacity=".62"/>
    <rect x="35" y="36" width="18" height="3" fill="#2a2a2a" opacity=".5"/>
  </g>

  <rect x="6" y="6" width="48" height="48" rx="5" fill="none" stroke="#2a2a2a" stroke-width="4"/>
</svg>
