<svg xmlns="http://www.w3.org/2000/svg" width="40" height="40" viewBox="0 0 40 40" shape-rendering="crispEdges">
  <g transform="translate(12 12)">
  <g fill="#dfe4e8">
    <rect x="1" y="0" width="2" height="1"/>
    <rect x="13" y="0" width="2" height="1"/>
    <rect x="0" y="4" width="1" height="2"/>
    <rect x="15" y="4" width="1" height="2"/>
    <rect x="1" y="14" width="2" height="1"/>
    <rect x="13" y="14" width="2" height="1"/>
  </g>
  <g fill="#747c84">
    <rect x="7" y="1" width="2" height="1"/>
    <rect x="6" y="2" width="4" height="1"/>
    <rect x="6" y="3" width="4" height="1"/>
    <rect x="3" y="4" width="10" height="1"/>
    <rect x="2" y="5" width="12" height="1"/>
  </g>
  <g fill="#aab3bb">
    <rect x="5" y="4" width="6" height="1"/>
    <rect x="3" y="5" width="10" height="1"/>
    <rect x="5" y="12" width="6" height="1"/>
  </g>
  <g fill="#edf0f3">
    <rect x="5" y="6" width="6" height="1"/>
    <rect x="4" y="7" width="8" height="1"/>
    <rect x="4" y="8" width="8" height="1"/>
    <rect x="5" y="9" width="6" height="1"/>
  </g>
  <g fill="#8d969f">
    <rect x="5" y="7" width="2" height="1"/>
    <rect x="9" y="7" width="2" height="1"/>
    <rect x="5" y="10" width="6" height="1"/>
    <rect x="6" y="11" width="4" height="1"/>
  </g>
  <g fill="#818a93">
    <rect x="4" y="12" width="8" height="1"/>
    <rect x="3" y="13" width="10" height="1"/>
    <rect x="2" y="14" width="4" height="1"/>
    <rect x="10" y="14" width="4" height="1"/>
    <rect x="4" y="15" width="3" height="1"/>
    <rect x="9" y="15" width="3" height="1"/>
  </g>
  <g fill="#c9d0d6">
    <rect x="7" y="13" width="2" height="1"/>
    <rect x="6" y="14" width="4" height="1"/>
  </g>
  </g>
</svg>
